<?xml version="1.0" encoding="UTF-8"?><svg id="Laag_1" xmlns="http://www.w3.org/2000/svg" xmlns:xlink="http://www.w3.org/1999/xlink" viewBox="0 0 771.02 209.76"><defs><filter id="drop-shadow-1" x="2.75" y="3.74" width="766.09" height="147.58" filterUnits="userSpaceOnUse"><feOffset dx="3.69" dy="3.12"/><feGaussianBlur result="blur" stdDeviation=".28"/><feFlood flood-color="#1d1d1b" flood-opacity=".85"/><feComposite in2="blur" operator="in"/><feComposite in="SourceGraphic"/></filter></defs><g filter="url(#drop-shadow-1)"><path d="M764.23,98.01c-.21-5.26-1.35-10.1-3.38-14.35-1.43-2.99-3.2-5.72-5.26-8.13l5.35-20.93c1.98-7.75-2.06-15.76-9.47-18.78-4.52-1.84-9.39-3.17-14.49-3.95-3.74-.57-7.55-.86-11.33-.86-1.18,0-2.38.03-3.56.08-5.74.26-11.28,1.28-16.45,3.05-4.06,1.39-7.82,3.25-11.22,5.57l-5.48-6.46c-3.05-3.59-7.51-5.65-12.2-5.65-.21,0-.42,0-.63.01-3.92.15-7.6,1.74-10.4,4.39-1.24-.3-2.52-.46-3.81-.46-.63,0-1.26.04-1.9.11l-27.5,3.29c-2.55.3-4.9,1.2-6.92,2.53-5.15-3.13-10.3-5.34-15.32-6.56-3.83-.93-7.59-1.4-11.17-1.4h0c-1.27,0-2.55.06-3.79.18-4.06.38-7.6,1.04-10.83,2.01-3.25.97-6.67,2.44-10.15,4.35-.38.21-.74.43-1.1.66-.61.4-1.21.83-1.82,1.26l1.15-16.82c.04-.47.06-.94.06-1.42,0-8.81-7.12-15.96-15.92-16-.03,0-.05,0-.08,0-.06,0-.12,0-.18,0,0,0,0,0,0,0,0,0,0,0-.01,0-.2,0-.4,0-.61.02l-28.85,1.26c-8.52.37-15.25,7.37-15.3,15.9l-.06,11.34c-2.95-.59-6.07-.9-9.37-.9-2.09,0-4.29.12-6.54.36-11.04,1.07-22.67,2.31-34.58,3.69-1.94.22-3.76.8-5.41,1.64-1.91-1.18-4.04-2.32-6.48-3.45-1.08-.5-2.21-.88-3.38-1.13-3.66-.78-7.74-1.2-12.11-1.25-.23,0-.45,0-.68,0-3.82,0-8.6.29-14.6.88-6.27.62-13.88,1.79-23.26,3.59-7.59,1.45-13.06,8.13-12.99,15.86l.02,2.01c-1.03-2.6-2.34-5.06-3.98-7.36-3.89-5.44-9.33-9.53-16.2-12.16-4.59-1.76-9.8-2.65-15.49-2.65-2.09,0-4.29.12-6.54.36-8.94.87-18.29,1.85-27.84,2.92-2.42-1.51-5.25-2.41-8.31-2.44-.05,0-.11,0-.16,0-.09,0-.17,0-.26,0-.37,0-.74.02-1.1.05l-40.22,2.99c-2.85-2.88-6.8-4.68-11.16-4.73-.07,0-.14,0-.2,0-.09,0-.19,0-.28,0-.43,0-.85.03-1.27.07l-47.82,4.07c-3.61-1.24-7.42-2.18-11.36-2.79-3.74-.57-7.55-.86-11.33-.86h0c-1.18,0-2.38.03-3.57.08-5.74.26-11.27,1.28-16.45,3.05-1.43.49-2.83,1.04-4.18,1.65l1-14.62c.04-.47.06-.94.06-1.42,0-8.8-7.11-15.95-15.9-16h0s-.01,0-.02,0c-.03,0-.05,0-.08,0-.06,0-.12,0-.18,0,0,0,0,0,0,0,0,0,0,0-.01,0-.2,0-.4,0-.61.02l-28.85,1.26c-8.52.37-15.25,7.37-15.3,15.9l-.08,14.21c-1.09-.51-2.24-.92-3.44-1.17-1.11-.24-2.23-.35-3.34-.35-4.29,0-8.45,1.73-11.5,4.88l-9.46,9.78-11.65-14.69c-3.06-3.86-7.7-6.06-12.54-6.06-.9,0-1.81.08-2.71.23-5.77.99-10.53,5.05-12.43,10.59L3.61,107.96c-2.38,6.94.28,14.62,6.44,18.61l21.87,14.17c2.62,1.7,5.65,2.57,8.7,2.57,1.79,0,3.59-.3,5.33-.91,3.67-1.3,6.71-3.88,8.6-7.21,2.89,2.54,6.64,3.99,10.57,3.99.15,0,.31,0,.46,0,2.71-.08,5.3-.84,7.57-2.16,1.78,4.7,5.67,8.3,10.52,9.7,1.46.42,2.95.63,4.44.63,3.65,0,7.23-1.25,10.13-3.61l4.67-3.82c2.37,1.33,5.06,2.03,7.81,2.03.45,0,.9-.02,1.35-.06l26.81-2.28c1.64-.14,3.21-.53,4.67-1.13,2.33.82,4.75,1.57,7.21,2.19,2.89.72,5.85,1.27,8.81,1.63,2.52.31,5.04.46,7.49.46.55,0,1.1,0,1.64-.02.06,0,.12,0,.18,0,6.12-.24,11.99-1.22,17.44-2.91,3.88-1.2,7.47-2.79,10.75-4.71.73,1.09,1.57,2.11,2.56,3.01,2.96,2.69,6.8,4.15,10.76,4.15.65,0,1.3-.04,1.96-.12l26.65-3.29c1.35-.17,2.64-.51,3.85-.98,2.78,2.11,6.17,3.26,9.67,3.26.29,0,.58,0,.87-.02l47.56-2.58c1.85,1.03,3.92,1.72,6.14,1.95l22.71,2.35c.55.06,1.1.08,1.65.08,3.89,0,7.67-1.42,10.61-4.03.11-.1.22-.2.33-.3l2.66,1.96c2.85,2.1,6.17,3.12,9.48,3.12,4.44,0,8.84-1.84,11.98-5.39l14.55-16.42c.66-.74,1.22-1.55,1.73-2.38l.05,5.34c.07,8.09,6.18,14.86,14.22,15.76,8.9,1,16.76,1.52,23.38,1.55.42,0,.84,0,1.25,0,6.2,0,11.27-.23,15.48-.72,4.75-.55,8.59-1.25,11.76-2.16,2.35-.68,4.2-1.31,5.76-2,2.28,1.76,5.06,2.92,8.11,3.24l22.71,2.35c.55.06,1.1.08,1.65.08,3.89,0,7.67-1.42,10.61-4.03.11-.1.22-.2.33-.3l2.66,1.96c2.85,2.1,6.17,3.12,9.48,3.12,3.61,0,7.18-1.24,10.08-3.6,2.29,1.21,4.85,1.86,7.46,1.86.45,0,.9-.02,1.35-.06l26.81-2.28c3.92-.33,7.41-2.08,10.01-4.7,4.62,3.32,9.69,5.72,15.1,7.13,4.64,1.2,9.4,1.81,14.17,1.81.74,0,1.48-.01,2.22-.04,5.16-.2,10.28-.99,15.24-2.33,4.13-1.12,8.03-2.53,11.65-4.18.33.35.68.69,1.05,1.02,2.93,2.56,6.68,3.95,10.53,3.95.61,0,1.21-.03,1.82-.1l24.59-2.82c1.26-.14,2.48-.43,3.63-.85l1.96,1.85c2.99,2.82,6.92,4.36,10.98,4.36.6,0,1.21-.03,1.81-.1,4.19-.48,7.99-2.58,10.62-5.82,2.08.71,4.23,1.34,6.4,1.88,2.89.72,5.85,1.27,8.8,1.63,2.52.31,5.04.46,7.49.46.55,0,1.1,0,1.64-.02.06,0,.12,0,.18,0,6.12-.24,11.99-1.22,17.44-2.91,5.99-1.86,11.31-4.61,15.82-8.16,4.9-3.87,8.74-8.68,11.43-14.3,2.76-5.78,4-12.29,3.7-19.35ZM377.86,97.89l-2.88-1.89c3.12-4.39,5.52-8.99,7.16-13.7.11-.32.2-.64.31-.96l.19,21.43c-1.21-1.93-2.83-3.6-4.78-4.88Z" fill="#e52321"/></g><path d="M497.06,71.33c-.84-.59-2.14-.88-3.89-.84-1.75.03-4.13.64-7.13,1.83l-.94,15.02c2.25-.5,4.21-1.22,5.87-2.16,1.66-.94,3.05-1.94,4.18-3,1.13-1.06,1.99-2.08,2.58-3.05.59-.97.95-1.74,1.08-2.3,0-.06.03-.41.09-1.03.06-.62-.02-1.38-.23-2.25-.22-.88-.75-1.61-1.6-2.21Z" fill="none"/><path d="M427.51,78.47c1.22-.66,2.16-1.44,2.82-2.35.66-.91,1.2-2.14,1.64-3.71.06-1.44-.14-2.49-.61-3.14-.47-.66-1.33-1.09-2.58-1.31-1.25-.22-3.13.17-5.63,1.17l-.38,9.85c1.94.31,3.52.14,4.74-.52Z" fill="none"/><path d="M435.96,95.64c-.47-.84-1.24-1.52-2.3-2.02-1.06-.5-2.55-.66-4.46-.47-1.91.19-4.36,1-7.37,2.44l1.22,9.85c3.44.31,6.12.16,8.02-.47,1.91-.62,3.29-1.39,4.13-2.3.84-.91,1.42-2.17,1.74-3.8,0-.06-.05-.41-.14-1.03-.09-.62-.38-1.36-.84-2.21Z" fill="none"/><path d="M341.36,71.33c-.84-.59-2.14-.88-3.9-.84-1.75.03-4.13.64-7.13,1.83l-.94,15.02c2.25-.5,4.21-1.22,5.87-2.16,1.66-.94,3.05-1.94,4.18-3,1.13-1.06,1.99-2.08,2.58-3.05.59-.97.95-1.74,1.08-2.3,0-.06.03-.41.09-1.03.06-.62-.02-1.38-.23-2.25-.22-.88-.75-1.61-1.6-2.21Z" fill="none"/><polygon points="110.72 112.83 87.73 49.61 65.58 72.51 42.59 43.51 18.75 113.14 40.62 127.32 49.72 99.54 65.11 123.19 77.88 100.85 88.11 131.35 110.72 112.87 110.72 125.95 137.52 123.68 138.91 50.72 110.72 53 110.72 112.83" fill="#fff"/><polygon points="110.46 44.02 138.03 42 139.54 19.74 110.59 21.01 110.46 44.02" fill="#fff"/><path d="M199.45,90.57c-1.1-2.28-2.47-4.24-4.13-5.87-1.66-1.63-3.5-3-5.54-4.13-2.03-1.13-4.02-2.13-5.96-3-1.63-.69-3.32-1.22-5.07-1.6-2.06-.5-4-.94-5.82-1.31-.44-.06-1-.14-1.69-.23-.69-.09-1.36-.22-2.02-.38-.66-.16-1.22-.38-1.69-.66-.47-.28-.7-.67-.7-1.17.06-1.13.56-2,1.5-2.63.94-.62,2.05-1.08,3.33-1.36,1.28-.28,2.58-.42,3.9-.42s2.47.06,3.28.19c2.75.38,5.16.92,7.23,1.64,2.06.72,4.35,1.61,6.85,2.67l5.54-21.68c-3.38-1.38-7.01-2.36-10.89-2.96-3.88-.59-7.79-.8-11.73-.61-4.26.19-8.26.92-12.01,2.21-3.75,1.28-7.04,3.13-9.85,5.54-2.82,2.41-5.04,5.32-6.66,8.73-1.63,3.41-2.38,7.31-2.25,11.69.06,2.57.58,4.83,1.55,6.8.97,1.97,2.19,3.71,3.66,5.21,1.47,1.5,3.1,2.78,4.88,3.85,1.78,1.06,3.55,1.97,5.3,2.72,1.75.75,3.39,1.35,4.93,1.78,1.53.44,2.77.78,3.71,1.03,1.44.56,2.67,1.13,3.71,1.69,1.03.56,1.58,1.38,1.64,2.44.06,1.63-.7,2.78-2.3,3.47-1.6.69-3.55,1.1-5.87,1.22-1.56.06-3.16-.09-4.79-.47-1.63-.38-3.19-.81-4.69-1.31-1.5-.5-2.91-1.05-4.22-1.64-1.31-.59-2.44-1.08-3.38-1.45l-7.13,20.08c1.88.88,3.88,1.71,6.01,2.49,2.13.78,4.32,1.46,6.57,2.02,2.25.56,4.54.99,6.85,1.27,2.31.28,4.57.39,6.76.33,4.75-.19,9.2-.92,13.33-2.21,4.13-1.28,7.68-3.1,10.65-5.44,2.97-2.35,5.27-5.22,6.9-8.63,1.63-3.41,2.35-7.34,2.16-11.78-.13-3.13-.74-5.83-1.83-8.12Z" fill="#fff"/><polygon points="199.41 73.91 211.79 72.69 210.39 126.28 237.04 123 237.04 70.16 248.3 68.85 250.74 46.51 200.06 50.83 199.41 73.91" fill="#fff"/><polygon points="300.77 71.94 303.68 48.2 251.87 52.05 252.53 125.16 302.74 122.44 303.21 96.53 276.37 99.07 276.55 93.9 292.23 92.68 294.2 76.26 277.12 77.48 277.21 72.97 300.77 71.94" fill="#fff"/><path d="M360.5,88.65c2.97-3.75,5.15-7.62,6.52-11.59,1.38-3.97,1.92-7.85,1.64-11.64-.28-3.78-1.44-7.1-3.47-9.95-2.03-2.85-5.01-5.02-8.92-6.52-3.91-1.5-8.81-1.94-14.69-1.31-11.01,1.06-22.46,2.29-34.35,3.66l1.5,73.3,22.71,2.35.28-16.05,22.81,16.8,14.55-16.42-19.62-12.86c4.38-2.75,8.06-6.01,11.03-9.76ZM343.09,76.82c-.13.56-.49,1.33-1.08,2.3-.6.97-1.45,1.99-2.58,3.05-1.13,1.06-2.52,2.06-4.18,3-1.66.94-3.61,1.66-5.87,2.16l.94-15.02c3-1.19,5.38-1.8,7.13-1.83,1.75-.03,3.05.25,3.9.84.84.6,1.38,1.33,1.6,2.21.22.88.3,1.63.23,2.25-.06.63-.09.97-.09,1.03Z" fill="#fff"/><path d="M458.3,88.79c-2.22-3.16-5.96-6.12-11.22-8.87,3.82-3.57,6.37-6.82,7.65-9.76,1.28-2.94,1.75-5.58,1.41-7.93-.34-2.35-1.25-4.41-2.72-6.19-1.47-1.78-3.02-3.25-4.65-4.41-1.63-1.16-3.72-2.33-6.29-3.52-2.63-.56-5.6-.86-8.92-.89-3.32-.03-7.84.23-13.56.8s-13,1.69-21.82,3.38l.66,73.3c8.38.94,15.61,1.42,21.68,1.46,6.07.03,11.01-.17,14.83-.61,3.82-.44,6.87-.99,9.15-1.64,2.28-.66,3.82-1.22,4.6-1.69.78-.47,1.2-.73,1.27-.8,2.57-2.56,4.61-4.91,6.15-7.04,1.53-2.13,2.88-4.6,4.04-7.41,1.16-2.82,1.63-5.76,1.41-8.82-.22-3.06-1.44-6.18-3.66-9.34ZM423.15,69.13c2.5-1,4.38-1.39,5.63-1.17,1.25.22,2.11.66,2.58,1.31.47.66.67,1.71.61,3.14-.44,1.56-.99,2.8-1.64,3.71-.66.91-1.6,1.69-2.82,2.35-1.22.66-2.8.83-4.74.52l.38-9.85ZM435.21,102.68c-.84.91-2.22,1.67-4.13,2.3-1.91.63-4.58.78-8.02.47l-1.22-9.85c3-1.44,5.46-2.25,7.37-2.44,1.91-.19,3.39-.03,4.46.47,1.06.5,1.83,1.17,2.3,2.02.47.84.75,1.58.84,2.21.09.63.14.97.14,1.03-.31,1.63-.89,2.89-1.74,3.8Z" fill="#fff"/><path d="M516.21,88.65c2.97-3.75,5.15-7.62,6.52-11.59,1.38-3.97,1.92-7.85,1.64-11.64-.28-3.78-1.44-7.1-3.47-9.95-2.03-2.85-5.01-5.02-8.92-6.52-3.91-1.5-8.81-1.94-14.69-1.31-11.01,1.06-22.46,2.29-34.35,3.66l1.5,73.3,22.71,2.35.28-16.05,22.81,16.8,14.55-16.42-19.62-12.86c4.38-2.75,8.06-6.01,11.03-9.76ZM498.8,76.82c-.13.56-.49,1.33-1.08,2.3-.6.97-1.46,1.99-2.58,3.05-1.13,1.06-2.52,2.06-4.18,3-1.66.94-3.61,1.66-5.87,2.16l.94-15.02c3-1.19,5.38-1.8,7.13-1.83,1.75-.03,3.05.25,3.89.84.84.6,1.38,1.33,1.6,2.21.22.88.3,1.63.23,2.25-.06.63-.09.97-.09,1.03Z" fill="#fff"/><polygon points="527.79 125.95 554.59 123.68 555.98 50.72 527.79 53 527.79 125.95" fill="#fff"/><polygon points="527.53 44.02 555.1 42 556.61 19.74 527.66 21.01 527.53 44.02" fill="#fff"/><path d="M601.7,100.29c-3.29,1.13-5.88,1.25-7.79.38-1.91-.88-3.38-2.24-4.41-4.08-1.03-1.85-1.69-3.52-1.97-5.02-.28-1.5-.42-2.31-.42-2.44.62-2.75,1.31-4.99,2.06-6.71.75-1.72,1.75-3.41,3-5.07,1.25-1.66,2.8-2.75,4.65-3.28,1.84-.53,4.04-.3,6.57.7,2.53,1,5.49,3.29,8.87,6.85l16.42-20.18c-3.75-4.5-7.52-7.91-11.31-10.23-3.79-2.31-7.41-3.89-10.89-4.74s-6.7-1.13-9.67-.84c-2.97.28-5.55.75-7.74,1.41-2.19.66-4.54,1.67-7.04,3.05-2.94,1.94-5.83,4.54-8.68,7.79-2.85,3.25-5.32,6.91-7.42,10.98-2.1,4.07-3.72,8.42-4.88,13.05-1.16,4.63-1.52,9.26-1.08,13.89.44,4.63,1.78,9.14,4.04,13.51,2.25,4.38,5.73,8.39,10.42,12.01,3.25,2.5,6.8,4.25,10.65,5.26,3.85,1,7.76,1.42,11.73,1.27,3.97-.16,7.87-.75,11.68-1.78,3.82-1.03,7.32-2.33,10.51-3.9,3.19-1.56,5.94-3.29,8.26-5.16,2.31-1.88,3.94-3.72,4.88-5.54l-18.3-19.52c-4.82,4.44-8.87,7.23-12.15,8.35Z" fill="#fff"/><path d="M748.24,98.69c-.13-3.13-.74-5.83-1.83-8.12-1.09-2.28-2.47-4.24-4.13-5.87-1.66-1.63-3.5-3-5.54-4.13-2.03-1.13-4.02-2.13-5.96-3-1.63-.69-3.32-1.22-5.07-1.6-2.06-.5-4-.94-5.82-1.31-.44-.06-1-.14-1.69-.23s-1.36-.22-2.02-.38c-.66-.16-1.22-.38-1.69-.66-.47-.28-.7-.67-.7-1.17.06-1.13.56-2,1.5-2.63.94-.62,2.05-1.08,3.33-1.36,1.28-.28,2.58-.42,3.89-.42s2.47.06,3.29.19c2.75.38,5.16.92,7.23,1.64,2.06.72,4.35,1.61,6.85,2.67l5.54-21.68c-3.38-1.38-7.01-2.36-10.89-2.96-3.88-.59-7.79-.8-11.73-.61-4.26.19-8.26.92-12.01,2.21-3.75,1.28-7.04,3.13-9.85,5.54-2.82,2.41-5.04,5.32-6.66,8.73-.08.16-.14.33-.21.49l-17.34-20.43-15.11,20.93.28-16.99-27.5,3.29,1.5,75.46,24.59-2.82.19-11.92,18.21,17.18,13.14-19.71-23.09-19.43,23.94-22.23c-.65,2.42-.94,5.04-.86,7.87.06,2.57.58,4.83,1.55,6.8.97,1.97,2.19,3.71,3.66,5.21,1.47,1.5,3.1,2.78,4.88,3.85,1.78,1.06,3.55,1.97,5.3,2.72,1.75.75,3.39,1.35,4.93,1.78,1.53.44,2.77.78,3.71,1.03,1.44.56,2.67,1.13,3.71,1.69,1.03.56,1.58,1.38,1.64,2.44.06,1.63-.7,2.78-2.3,3.47-1.59.69-3.55,1.1-5.87,1.22-1.56.06-3.16-.09-4.79-.47-1.63-.38-3.19-.81-4.69-1.31-1.5-.5-2.91-1.05-4.22-1.64-1.31-.59-2.44-1.08-3.38-1.45l-7.13,20.08c1.88.88,3.88,1.71,6.01,2.49,2.13.78,4.32,1.46,6.57,2.02,2.25.56,4.54.99,6.85,1.27,2.31.28,4.57.39,6.76.33,4.75-.19,9.2-.92,13.33-2.21,4.13-1.28,7.68-3.1,10.65-5.44,2.97-2.35,5.27-5.22,6.9-8.63,1.63-3.41,2.35-7.34,2.16-11.78Z" fill="#fff"/><path d="M362.93,174.68h.25c2.08,0,3.48,1.7,4.19,5.09l-.49.54h-.25l-1.98-.54c-5.42.67-11.09,3.79-17.02,9.38-1.65,2.42-2.47,4.12-2.47,5.09v1.06c0,2.86,3.54,4.65,10.62,5.36,4.44,0,7.81-1.97,10.11-5.9l-2.96-1.06c-1.09,0-4.14,1.07-9.13,3.21-.5-.91-.74-1.8-.74-2.67v-.27c0-2.85,3.29-4.82,9.87-5.9h.49c3.79,0,5.68,2.06,5.68,6.17s-4.19,7.98-12.58,11.24l-2.98.54c-5.32,0-8.94-1.88-10.85-5.63l-.49-3.48c0-8.08,5.01-14.95,15.04-20.62,2.52-1.07,4.42-1.61,5.68-1.61Z" fill="#1d1d1b"/><path d="M391.75,174.68c.92.19,1.39.88,1.39,2.06-.3,2.22-1.23,3.33-2.79,3.33-10.21,0-15.32,1.37-15.32,4.11l-.27,2.32v1.28c6.65-1.54,11.2-2.32,13.64-2.32h.56c.92.38,1.39,1.24,1.39,2.57,0,1.88-1.3,2.82-3.89,2.82-8.54,1.07-12.81,2.35-12.81,3.85l-.27,2.57v1.03c0,1.54,1.02,2.4,3.06,2.57,3.19-.34,7.18-1.11,11.97-2.32h.83c.74.28,1.12.88,1.12,1.81v.76c0,2.11-4.64,3.74-13.91,4.89h-.85c-3.35,0-5.2-2.06-5.56-6.17,0-3.02.65-8.76,1.94-17.21l-.56-1.54c0-3.48,5.57-5.54,16.72-6.17l3.62-.25Z" fill="#1d1d1b"/><path d="M398.85,174.68l.83,1.06-.83,10.19,16.79-8.84c.73.86,1.1,1.93,1.1,3.21-1.89,2.52-6.76,5.74-14.59,9.63v.27c3.62,4.49,7.75,8.24,12.39,11.26v.52c0,2.5-.92,3.75-2.76,3.75l-13.76-10.72c-.54,7.14-1.09,10.72-1.64,10.72l-1.39.27c-.91-.29-1.37-.83-1.37-1.61l1.1-12.59-.27-3.21c.62,0,1.17-3.93,1.64-11.78.75-1.43,1.67-2.15,2.76-2.15Z" fill="#1d1d1b"/><path d="M449.27,174.68c5.88.77,8.82,4.1,8.82,9.99,0,7.73-3.22,14.13-9.67,19.19-2.66,1.44-5.04,2.16-7.13,2.16-5.12,0-8.41-2.61-9.89-7.84l-.2-2.42v-.81c0-8.44,4.06-14.84,12.19-19.19,2.05-.72,4.01-1.08,5.88-1.08ZM433.94,195.76c2.12,3.05,4.92,4.58,8.4,4.58,5.6,0,9.52-3.15,11.76-9.45l.42-2.98c0-4.44-2.31-7.05-6.93-7.83h-.64c-3.82,0-7.81,3.6-11.97,10.8-.7,2.16-1.05,3.79-1.05,4.87Z" fill="#1d1d1b"/><path d="M474.22,174.68c5.36,0,8.05,1.52,8.05,4.55,0,6.02-5.88,11.47-17.65,16.35-.87,0-1.3.54-1.3,1.61-.12,5.89-.73,8.84-1.83,8.84h-1.3c-.35-.08-.69-.52-1.03-1.34l2.33-21.97h-.25c-.7,0-1.05-.8-1.05-2.4,0-2.63,1.56-4.15,4.68-4.56l9.35-1.06ZM463.83,190.22c5.94-1.5,10.44-4,13.51-7.5l.52-1.61v-.52l-1.3-.27h-1.3c-6.92.35-10.38.97-10.38,1.88l-1.05,8.03Z" fill="#1d1d1b"/><path d="M500.59,174.68h.25c.84,0,1.55.44,2.11,1.32-1.23,9.03-2.11,17.1-2.64,24.22l15.03-3.16.52.79v1.59c0,2.4-5.45,4.59-16.35,6.58-1.93-.35-2.89-.96-2.89-1.84,1.44-19.31,2.5-28.97,3.16-28.97l.79-.52Z" fill="#1d1d1b"/><path d="M539.18,174.68c.92.19,1.39.88,1.39,2.06-.3,2.22-1.23,3.33-2.79,3.33-10.21,0-15.32,1.37-15.32,4.11l-.27,2.32v1.28c6.65-1.54,11.2-2.32,13.64-2.32h.56c.92.38,1.39,1.24,1.39,2.57,0,1.88-1.3,2.82-3.89,2.82-8.54,1.07-12.81,2.35-12.81,3.85l-.27,2.57v1.03c0,1.54,1.02,2.4,3.06,2.57,3.19-.34,7.18-1.11,11.97-2.32h.83c.74.28,1.12.88,1.12,1.81v.76c0,2.11-4.64,3.74-13.91,4.89h-.84c-3.35,0-5.2-2.06-5.56-6.17,0-3.02.65-8.76,1.94-17.21l-.56-1.54c0-3.48,5.57-5.54,16.72-6.17l3.62-.25Z" fill="#1d1d1b"/><path d="M561.28,174.68h.25c2.08,0,3.48,1.7,4.19,5.09l-.49.54h-.25l-1.98-.54c-5.42.67-11.09,3.79-17.02,9.38-1.65,2.42-2.47,4.12-2.47,5.09v1.06c0,2.86,3.54,4.65,10.62,5.36,4.44,0,7.81-1.97,10.11-5.9l-2.96-1.06c-1.09,0-4.14,1.07-9.13,3.21-.5-.91-.74-1.8-.74-2.67v-.27c0-2.85,3.29-4.82,9.87-5.9h.49c3.79,0,5.68,2.06,5.68,6.17s-4.19,7.98-12.58,11.24l-2.98.54c-5.32,0-8.94-1.88-10.85-5.63l-.49-3.48c0-8.08,5.01-14.95,15.04-20.62,2.52-1.07,4.42-1.61,5.68-1.61Z" fill="#1d1d1b"/><path d="M586.45,174.68c5.88.77,8.82,4.1,8.82,9.99,0,7.73-3.22,14.13-9.67,19.19-2.66,1.44-5.04,2.16-7.13,2.16-5.12,0-8.41-2.61-9.89-7.84l-.2-2.42v-.81c0-8.44,4.06-14.84,12.19-19.19,2.05-.72,4.01-1.08,5.88-1.08ZM571.11,195.76c2.12,3.05,4.92,4.58,8.4,4.58,5.6,0,9.52-3.15,11.76-9.45l.42-2.98c0-4.44-2.31-7.05-6.93-7.83h-.64c-3.82,0-7.81,3.6-11.97,10.8-.7,2.16-1.05,3.79-1.05,4.87Z" fill="#1d1d1b"/><path d="M609.84,200.09c1.6.3,2.4,1.14,2.4,2.5v.22c-.64,2.14-2.18,3.21-4.62,3.21-1.21,0-1.93-.83-2.18-2.5,0-1.93,1.46-3.07,4.39-3.43ZM615.84,174.72c.68.32,1.01.69,1.01,1.13-3.21,10.34-4.82,16.9-4.82,19.66-.91,1.06-1.68,1.59-2.3,1.59-1.01-.36-1.52-.81-1.52-1.35,1.6-14.02,3.72-21.03,6.36-21.03h1.27Z" fill="#1d1d1b"/><path d="M384.77,161.62c1.07.34,1.61.81,1.61,1.41-.23.93-1.63,2.98-4.21,6.14h-1.01l-.79-.63v-.47l3.01-4.88c.21-1.05.67-1.57,1.4-1.57Z" fill="#1d1d1b"/><path d="M604.57,174.81c2.82.35,4.23,1.55,4.23,3.59l.1.66c0,3.23-1.78,5.73-5.34,7.5-1.03.36-2.03.55-3.02.55h-.21c-2.41,0-3.85-1.23-4.33-3.7v-1.08c0-2.71,1.78-5,5.34-6.86,1.2-.36,2.27-.57,3.23-.65ZM597.52,182.41v.33c0,1.59,1.01,2.39,3.02,2.39,2.32,0,4.4-1.16,6.24-3.48l.61-1.84c-.27-1.82-1.28-2.72-3.02-2.72l-.8-.1c-2.93,0-4.91,1.41-5.94,4.24l-.1,1.2ZM602.86,177.63h.1c1.41,0,2.12.65,2.12,1.96,0,1.04-.61,1.76-1.82,2.18h-.09c.8.83,1.2,1.41,1.2,1.74-.25.22-.48.32-.7.32-1.04-1.09-1.88-1.63-2.52-1.63-.09,1.16-.26,1.74-.5,1.74h-.1c-.4,0-.61-.15-.61-.44.34-2.07.5-3.45.5-4.13-.14,0-.21-.11-.21-.32,0-.94.87-1.42,2.62-1.42ZM601.45,179.37l-.1,1.2h.21c1.54-.15,2.31-.44,2.31-.87v-.21l-.5-.11h-1.91Z" fill="#1d1d1b"/></svg>